<?xml version="1.0" encoding="UTF-8"?>
<svg id="OBJECTS" xmlns="http://www.w3.org/2000/svg" version="1.1" viewBox="0 0 2000 2000">
  <!-- Generator: Adobe Illustrator 30.1.0, SVG Export Plug-In . SVG Version: 2.1.1 Build 136)  -->
  <defs>
    <style>
      .st0 {
        fill: #fff;
        fill-rule: evenodd;
      }

      .st1 {
        fill: #0094f0;
      }
    </style>
  </defs>
  <rect class="st1" x="186.98" y="128.3" width="1592.65" height="1635.54" rx="564.21" ry="564.21"/>
  <path class="st0" d="M734.97,889.12l366.82-401.08c-16.81-1.45-34.17-2.2-52.08-2.2h-189.11c-215.67,0-390.5,163.95-390.5,366.2,0,12.52.67,24.89,1.98,37.09h262.89Z"/>
  <path class="st0" d="M862.9,1218.23l94.44-292.63h-479.36c36.32,166.99,193.81,292.63,382.61,292.63h2.31Z"/>
  <path class="st0" d="M1477.38,778.46c-44.83-148.28-168.62-272.09-374.33-290.31l-93.7,290.31h468.03Z"/>
  <path class="st0" d="M1231.73,814.94l-368.83,403.29h137.55c40.17,2.62,47.91,46.12,23.23,130.52,357.12,10.42,515.45-285.67,463.04-533.8h-254.99Z"/>
  <path class="st0" d="M888.87,1137.77c-135.47-1.98-248.08-92.26-275.28-212.17h-135.61c36.32,166.99,193.81,292.63,382.61,292.63h2.31l25.97-80.46Z"/>
  <path class="st0" d="M1066.14,602.52c135.94,10.44,223.92,83.25,265.39,175.94h145.85c-44.83-148.28-168.62-272.09-374.33-290.31l-36.91,114.37Z"/>
</svg>